<?xml version="1.0" encoding="UTF-8"?>
<svg id="Layer_1" data-name="Layer 1" xmlns="http://www.w3.org/2000/svg" viewBox="0 0 1080 920">
  <defs>
    <style>
      .cls-1 {
        fill: #404041;
      }
    </style>
  </defs>
  <g>
    <g>
      <path class="cls-1" d="M498.73,520.34c0,14.7-1.22,24.26-4.49,30.22-6.13,11.35-21.48,17.4-37.82,17.4-22.46,0-34.88-12.82-34.88-31.69,0-8,2.21-15.76,4.66-22.13h10.29c-1.22,4.98-2.12,10.46-2.12,15.36,0,15.93,10.05,21.32,23.85,21.32,12.99,0,23.2-4.25,29.24-8.98.57-3.84.9-7.84,1.06-12.01-3.92,1.31-9.56,2.29-15.36,2.29-13.8,0-22.54-6.7-22.54-20.83,0-14.95,8.41-29.98,23.61-29.98s24.5,15.85,24.5,39.04ZM461.98,465.53c-3.35-3.43-6.94-7.19-10.05-10.86,3.43-3.43,7.27-7.02,10.78-10.29,3.19,3.1,6.21,6.37,9.07,9.64,3.27-3.43,6.86-6.78,10.29-9.8,3.43,3.51,7.02,7.27,10.05,11.03-3.35,3.51-7.19,7.03-10.7,10.21-3.19-3.1-6.29-6.29-9.15-9.48-3.19,3.27-6.78,6.62-10.29,9.56ZM477.33,516.99c4,0,7.6-.33,10.78-.82-1.39-11.03-6.37-19.85-15.76-19.85-7.51,0-11.76,5.55-11.76,11.52,0,7.35,6.94,9.15,16.75,9.15Z"/>
      <path class="cls-1" d="M559.84,532.67c-6.7,6.86-17.56,9.72-27.77,9.72-9.31,0-16.83-2.45-20.67-6.78l1.14-13.64c5.47,2.21,12.01,3.51,20.5,3.51,7.6,0,15.19-.98,20.91-3.59-5.39-11.27-10.95-25.48-15.19-37.41l12.33-7.27c3.68,12.01,9.15,27.36,13.8,37.08M528.07,455.73c3.43-3.59,7.19-7.35,10.95-10.86,3.68,3.51,7.43,7.27,10.86,11.03-3.43,3.76-7.27,7.51-11.03,11.03-3.68-3.59-7.43-7.43-10.78-11.19Z"/>
      <path class="cls-1" d="M658.46,514.7l-1.2,13.7c-10.55,3.17-15.76,5.13-23.14,7.54-23.62,7.7-60.59,18.16-74.27-3.27-.84-1.31-.15-3.28-.15-11.53s4.23-8.82,5.21-6.85c11.3,22.66,46.48,14.87,51.09,12.04h0c-4.49-3.43-9.24-10.25-9.24-16.29,0-13.48,10.37-30.55,29.65-30.55,7.02,0,11.35,2.21,15.03,6.04l-.65,12.25c-4.41-.98-10.29-1.8-15.11-1.8-11.43,0-17.56,3.59-17.56,9.88,0,5.31,4.57,11.76,21.07,14.05,6.04-1.55,12.25-3.27,19.28-5.23Z"/>
      <path class="cls-1" d="M594.78,566.94h0s44.81-12.05,44.81-12.05h0c0,7.05-4.72,13.23-11.52,15.09l-14.7,4.02c-5.9,1.61-18.59-.95-18.59-7.07Z"/>
    </g>
    <g>
      <path class="cls-1" d="M456.12,598.48l-.22,26.17c-.06,7.27-.32,10.33-1.67,12.85-2.05,3.78-6.93,6.05-13.07,6.05-9.13,0-13.1-5.04-13.1-12.31,0-3.46.94-6.74,1.98-9.45h4c-.57,2.05-1.07,4.5-1.07,6.71,0,6.01,3.34,8.31,8.82,8.31,3.46,0,6.9-.94,8.94-2.36.03-2.08.06-4.13.06-5.7l-.28-30.04,5.61-.22Z"/>
      <path class="cls-1" d="M481.41,631.7c0,3.15,0,3.21-.82,3.21-1.7,0,1.87-.03.32-.09-1.29,6.33-5.6,12.47-17.54,13.26l-1.89-5.64c10.08-.82,13.73-4.19,15.15-7.65h-2.24c-7.81,0-11.59-2.3-11.59-8.28s3.24-11.59,9.1-11.59,9.07,5.42,9.42,13.54h-.48c.57,0,.57.06.57,3.24ZM475.44,628.62h1.92c-.47-4.25-2.42-7.94-6.17-7.94-2.9,0-4.53,2.14-4.53,4.41,0,3.21,3.27,3.53,8.79,3.53Z"/>
      <path class="cls-1" d="M503.11,631.48h-.06c-1.07,2.08-3.05,3.56-5.83,3.56-2.93,0-6.01-1.67-8.44-4.06-1.39,2.77-3.78,3.94-7.81,3.94-.6,0-.6-.06-.6-3.24s0-3.21.85-3.21c4.16,0,4.79-1.7,6.08-5.32,1.92-5.51,4.38-8.53,9.26-8.53,3.34,0,5.98,1.61,7.37,5.2.91,2.42,1.13,5.04,1.89,6.52M501,626.38c0-2.46-2.14-5.95-5.42-5.95-2.55,0-4.03,2.14-5.01,5.42,2.49,1.73,5.7,3.02,7.68,3.02,1.76,0,2.74-.91,2.74-2.49Z"/>
      <path class="cls-1" d="M626.96,631.7c0,3.15,0,3.21-.85,3.21-2.92,0-5.13-.94-8.91-3.78-7.86,3.9-68.14,16.15-114.15.35-.57-.19-.29-1.29-.08-2.28.65-3.08,2.04-3.12,2.85-2.88,39.87,11.69,93.73,5.93,107.54.63-2.27-3.75-4.82-7.05-6.83-9.04.28-1.57.98-3.62,1.61-5.13,2.52-.85,5.61-1.67,9.7-1.67,6.42,0,9.7,2.93,9.7,7.15,0,2.9-1.57,6.27-5.07,9.23.56.64,2.21.94,3.93.98.57.01.57.06.57,3.24ZM612,617.03c1.76,2.24,3.62,5.04,5.2,7.78l.44.38c3.87-2.11,5.95-4.28,5.95-6.01,0-1.57-1.51-2.71-6.05-2.71-1.95,0-4,.22-5.54.5v.06Z"/>
      <path class="cls-1" d="M651.93,624.08c0,6.08-3.05,10.9-8.03,10.9-2.9,0-6.23-1.79-9.13-4.63-1.98,3.09-4,4.57-8.38,4.57-.6,0-.6-.06-.6-3.24s0-3.21.85-3.21c3.62,0,4.76-.98,6.83-5.38,2.55-5.42,4.69-8.72,9.67-8.72s8.79,4.12,8.79,9.73ZM647.59,626.29c0-3.21-2.46-6.14-5.35-6.14-2.49,0-3.72,2.02-5.2,5.29,3.62,2.27,6.68,3.37,8.19,3.37s2.36-.91,2.36-2.52Z"/>
      <path class="cls-1" d="M628.4,601.11h0s17.27-4.64,17.27-4.64h0c0,2.72-1.82,5.1-4.44,5.82l-5.67,1.55c-2.28.62-7.17-.37-7.17-2.72Z"/>
      <path class="cls-1" d="M569.21,605.05c0-3.66,2.05-6.57,5.48-6.57,3.08,0,5.51,2.46,5.51,6.13,0,3.39-2.09,5.61-5.82,5.61-2.84,0-5.17-1.3-5.17-5.17ZM577.29,604.99c0-1.81-1.44-2.94-2.94-2.94-1.61,0-2.23,1.16-2.23,2.57,0,1.68,1.03,2.33,2.7,2.33,1.33,0,2.46-.55,2.46-1.95Z"/>
      <path class="cls-1" d="M495.73,602.11c0,4.19-4.04,7.02-8.55,8.89-2.12.88-4.57.04-5.7-1.96h0c2.51-.53,5.01-1.38,7.05-2.35-1.88-.88-2.85-2.32-2.85-4.42,0-3.01,2.51-5.58,5.42-5.58s4.64,2.38,4.64,5.42ZM488.37,602.3c0,1.13,1.38,1.85,3.48,2.35.75-.66,1.19-1.32,1.19-2.04,0-1.07-1.16-2.1-2.51-2.1s-2.16.94-2.16,1.79Z"/>
    </g>
  </g>
  <g>
    <path class="cls-1" d="M483.38,704.06c0,1.37,0,1.4-.46,1.4h-8.36c-.33,0-.33-.04-.33-1.37s0-1.38.47-1.38h8.36c.32,0,.32.04.32,1.35Z"/>
    <path class="cls-1" d="M498.57,700.45c0,2.14-.91,4.26-2.26,5.52-2.1-.42-4.38-1.16-6.22-1.91-1.88.95-4.94,1.4-7.16,1.4-.33,0-.33-.04-.33-1.37s0-1.38.47-1.38c1.21,0,2.98-.12,4.12-.26v-.04c-1.21-.89-1.86-2.05-1.86-3.4,0-2.12,1.54-4.17,3.55-4.89v-.04c-.65-.28-1.44-.61-2.08-.86l1.14-2.01c3.56,1.4,6.06,2.52,8.14,4.24,1.54,1.3,2.49,2.84,2.49,4.99ZM492.82,698.82c0-1.61-1.37-2.98-2.91-2.98-1.4,0-2.63,1.19-2.63,2.56,0,1.14.82,2.17,3.14,3.17,1.86-.86,2.4-1.86,2.4-2.75ZM496.66,701.08c0-1.21-.61-2.58-2.05-3.8l-.04.04c.04.23.07.54.07.82,0,1.23-.46,2.91-1.89,4.24v.04c1.1.37,2.22.68,3.22.93.28-.42.68-1.28.68-2.26Z"/>
    <path class="cls-1" d="M507.95,686.91l2.36-.42c.96,5.55,1.68,12.8,1.79,18.73l-2.22.32c-.11-5.96-.89-13.16-1.93-18.62Z"/>
    <path class="cls-1" d="M522.47,705.53c-3.31,0-6.18-1.47-6.18-4.05,0-1.98,1.66-3.87,3.49-5.31v-.03c-2.54-1.26-3.87-2.29-3.87-3.94,0-2.94,4.27-5.06,7.97-5.71l-.07,2.87c-3.66.49-5.54.96-5.54,2.22,0,.96,1.05,1.82,4.66,3.43l-.28,1.7c-2.51,1.51-3.94,2.72-3.94,3.98,0,1.54,2.03,2.37,4.8,2.37.65,0,1.47-.04,2.05-.14l-.4,2.16c-.56.21-1.47.46-2.68.46Z"/>
    <path class="cls-1" d="M528.79,686.91l2.37-.42c.96,5.55,1.68,12.8,1.79,18.73l-2.22.32c-.11-5.96-.89-13.16-1.93-18.62Z"/>
    <path class="cls-1" d="M543.13,701.17h.07c1.07-4.34,3.19-9.84,5.17-14.68l2.07.82c-2.47,5.45-5.13,12.67-6.31,17.94l-2.08.21c-1.23-5.24-4.38-12.73-6.81-18.04l2.47-.93c1.77,4.05,4.38,10.98,5.43,14.68Z"/>
    <path class="cls-1" d="M573.67,704.06c0,1.37,0,1.4-.46,1.4-2.68,0-3.87-.65-4.75-2-1.56,1.47-4.01,1.96-6.06,1.96s-3.66-.49-4.52-1.44l.3-2.16c1.24.51,2.68.79,4.59.79,1.75,0,3.59-.21,4.8-.91-1.14-2.61-2.4-5.9-3.29-8.37l2.22-1.1c.72,2.4,1.79,5.66,2.75,7.88.84,1.91,1.29,2.59,4.1,2.59.32,0,.32.04.32,1.35ZM562.13,687.28c.65-.72,1.37-1.44,2.08-2.12.72.68,1.44,1.4,2.08,2.12-.65.72-1.37,1.44-2.08,2.1-.72-.67-1.44-1.38-2.08-2.1Z"/>
    <path class="cls-1" d="M582.02,704.06c0,1.37,0,1.4-.46,1.4h-8.36c-.33,0-.33-.04-.33-1.37s0-1.38.47-1.38h8.36c.32,0,.32.04.32,1.35Z"/>
    <path class="cls-1" d="M590.98,704.06c0,1.37,0,1.4-.46,1.4-2.47,0-3.99-.7-4.62-1.7-.75.96-2.07,1.7-4.34,1.7-.33,0-.33-.04-.33-1.37s0-1.38.47-1.38c1.17,0,2.22-.33,2.71-.72.3-1.37.44-3.59.51-5.17l2.08.07c0,1.56-.04,3.29-.24,4.82.68.67,2.05,1,3.91,1,.31,0,.31.04.31,1.35ZM583.89,691.18c.65-.72,1.37-1.44,2.08-2.12.72.68,1.44,1.4,2.08,2.12-.65.72-1.37,1.44-2.08,2.1-.72-.67-1.44-1.38-2.08-2.1Z"/>
    <path class="cls-1" d="M604.54,699.91c0,3.08-1.61,5.59-4.33,5.59-1.28,0-3.24-.89-5.08-2.58-1.21,1.88-2.14,2.54-4.61,2.54-.33,0-.33-.04-.33-1.37s0-1.38.47-1.38c1.96,0,2.61-.51,3.84-3.05,1.44-2.98,2.54-4.85,5.27-4.85s4.77,2.19,4.77,5.1ZM602.44,701.2c0-2.08-1.44-3.85-3.14-3.85-1.52,0-2.21,1.31-3.13,3.33,2.24,1.61,3.82,2.31,4.64,2.31,1.05,0,1.63-.61,1.63-1.79Z"/>
  </g>
  <g>
    <g>
      <path class="cls-1" d="M547.33,345.04c-6.02,0-13.49-1.41-20.71-12.97-7.38-11.77-8.7-26.23-3.15-34.4,5.03-7.38,12.81-9.72,18.45-10.38,9.6-1.12,20.4,1.84,26.28,7.2,2.7,2.46,4.16,5.27,4.23,8.13.04.8-.06,1.68-.29,2.55-2.18,8.26-11.13,10.34-18.51,8.78-6.81-1.44-13.6-6.38-12.4-13.82.44-2.71,2.49-4.64,5.5-5.19,3.25-.59,7.72.6,9.61,3.93.96,1.68,1.93,5.23-2.28,10.06-.66.76-1.82.84-2.59.18-.76-.67-.84-1.82-.18-2.59,1.17-1.34,2.96-3.88,1.85-5.84-.9-1.59-3.49-2.54-5.77-2.13-1.03.19-2.3.71-2.53,2.16-.81,5.07,4.38,8.56,9.54,9.65,5.74,1.22,12.63-.18,14.2-6.13.13-.51.19-1.01.17-1.48-.06-2.37-1.68-4.32-3.03-5.55-5.07-4.62-14.91-7.26-23.38-6.27-4.88.57-11.6,2.56-15.84,8.8-4.77,7.02-3.41,19.8,3.23,30.39,7.32,11.72,14.57,11.41,20.39,11.17.84-.04,1.65-.07,2.42-.07,1.01,0,1.83.82,1.83,1.83s-.82,1.83-1.83,1.83c-.72,0-1.48.03-2.27.06-.93.04-1.91.08-2.94.08Z"/>
      <path class="cls-1" d="M531.77,337.81c-.14,0-.28-.02-.42-.05-13.45-3.13-21.95-11.41-23.94-23.32-1.75-10.52,2.39-25.55,11.37-31.17,25.46-15.93,41.04,1.72,48.53,10.2l.99,1.12s.04.04.05.06l.05.05c2.07,2.34,3.38,4.81,3.95,7.43.02.07.04.14.05.21,0,.03,0,.06.01.09,1.21,5.97-1.42,12.45-7.42,18.28-9.96,9.68-25.97,14.91-37.24,12.17-.06-.01-.11-.03-.16-.05,1.42.52,2.95.97,4.6,1.36.99.23,1.6,1.22,1.37,2.2-.2.85-.95,1.42-1.78,1.42ZM538.69,280.45c-5.2,0-11.15,1.66-17.96,5.93-6.11,3.83-11.6,16.05-9.7,27.46,1.09,6.52,4.9,14.74,16.48,18.97-.85-.33-1.34-1.24-1.12-2.14.24-.98,1.23-1.59,2.22-1.35,9.98,2.43,24.84-2.51,33.82-11.23,5.11-4.97,7.37-10.31,6.36-15.04,0-.01,0-.03,0-.04-.43-2.03-1.46-3.98-3.06-5.8-.03-.03-.05-.06-.06-.07-.02-.02-.05-.05-.07-.07l-1.04-1.17c-5.51-6.25-13.63-15.45-25.87-15.45Z"/>
      <path class="cls-1" d="M530.29,330.19c-.72,0-1.41-.43-1.7-1.15-3.65-8.99-1.41-16.2,1.12-20.67,4.52-8,12.85-12.63,18.68-13.55,1-.16,1.94.53,2.1,1.53.16,1-.53,1.94-1.53,2.1-4.99.79-12.14,4.79-16.06,11.73-2.13,3.76-4.01,9.85-.91,17.48.38.94-.07,2.01-1.01,2.39-.23.09-.46.14-.69.14Z"/>
      <path class="cls-1" d="M552.54,344.89c-.6,0-1.19-.29-1.54-.83-.55-.85-.31-1.99.54-2.54.25-.16,24.52-16.81,15.99-42.4-.32-.96.2-2,1.16-2.32.96-.32,2,.2,2.32,1.16,7.92,23.79-9.93,41.73-17.47,46.63-.31.2-.66.3-1,.3Z"/>
    </g>
    <path class="cls-1" d="M556.81,287.46c-.23,0-.47-.05-.7-.14-.93-.39-1.38-1.46-.99-2.4,5.94-14.27,9.98-28.72,10.56-37.72,1.48-22.8-10.31-28.56-10.81-28.79-.92-.43-1.32-1.52-.89-2.44s1.51-1.32,2.43-.9c.6.27,14.59,7.01,12.94,32.36-.6,9.38-4.75,24.28-10.84,38.89-.29.7-.98,1.13-1.69,1.13Z"/>
    <path class="cls-1" d="M539.88,239.06c-4.55,0-8.66-.95-11.32-2.78-3.32-2.29-5.05-5.65-4.86-9.48.22-4.54,3.2-9.28,7.24-11.51.04-.02.07-.04.11-.05,1.74-.94,3.56-1.34,5.28-1.16.01,0,.03,0,.04,0,.52.05,1.06.16,1.58.34,4.44,1.48,5.51,5.28,4.6,8.38-1.17,4.03-5.6,7.58-10.71,6.3-1.77-.44-2.95-1.69-3.15-3.33-.22-1.84.88-3.79,2.68-4.74,2.22-1.18,4.96-.64,7.33,1.42.02.01.03.03.04.04.12-.24.21-.48.28-.71.38-1.3.3-3.02-2.25-3.87-.25-.08-.49-.14-.72-.16-.03,0-.06,0-.09,0-1-.11-2.12.15-3.24.77-.03.02-.06.03-.09.05-2.9,1.65-5.12,5.18-5.28,8.44-.12,2.58.98,4.69,3.28,6.28,3.53,2.43,11.2,2.82,17.86.91,5.29-1.52,8.79-4.1,9.6-7.1.71-2.62-.56-5.67-3.79-9.08-.69-.73-.67-1.88.05-2.58.72-.7,1.87-.69,2.57.01h0c4.21,4.44,5.78,8.67,4.71,12.61-1.18,4.32-5.49,7.75-12.13,9.66-3.2.92-6.52,1.36-9.64,1.36ZM533.88,224.07c-.29,0-.55.06-.79.19-.53.28-.78.8-.75,1.06.01.12.36.21.4.22,1.29.32,2.47.1,3.46-.41-.82-.69-1.62-1.05-2.31-1.05Z"/>
    <path class="cls-1" d="M522.85,284.86c-.75,0-1.45-.46-1.72-1.21-5.13-14.15-8.03-28.7-7.78-38.94.36-14.55,6.33-24.47,17.73-29.49.02-.01.13-.06.16-.07,1.54-.68,3.21-1.05,4.9-1.08,5.15-.08,10.27,3.13,13.39,8.44,2.92,4.98,3.33,10.48,1.06,14.35-.51.87-1.63,1.17-2.51.65-.87-.51-1.17-1.64-.65-2.51,1.57-2.68,1.16-6.85-1.06-10.64-1.92-3.27-5.6-6.75-10.15-6.63-1.2.02-2.4.29-3.57.8-.02,0-.12.05-.13.06-9.94,4.38-15.17,13.2-15.5,26.21-.25,9.81,2.58,23.86,7.56,37.6.34.95-.15,2-1.1,2.35-.21.07-.42.11-.62.11Z"/>
    <path class="cls-1" d="M561.64,272.44c-.18,0-.36-.03-.53-.08-.56-.17-13.94-4.31-26.75-14.19-10.47-8.08-15.56-15.15-16.02-22.25-.36-5.68,2.32-11.3,8.2-17.18.72-.72,1.88-.72,2.59,0,.72.72.72,1.88,0,2.59-5.09,5.09-7.42,9.79-7.13,14.35.38,5.88,5.15,12.29,14.6,19.58,12.28,9.48,25.44,13.55,25.58,13.59.97.29,1.52,1.32,1.22,2.29-.24.79-.97,1.3-1.75,1.3Z"/>
    <path class="cls-1" d="M558.33,228.44c-.62,0-1.22-.31-1.56-.87-.07-.11-7.37-11.18-22.96-9.61-1,.1-1.91-.63-2.01-1.64-.1-1.01.63-1.91,1.64-2.01,18.09-1.84,26.37,11.2,26.45,11.33.53.86.27,1.99-.6,2.52-.3.19-.63.27-.96.27Z"/>
    <path class="cls-1" d="M533.43,280.99c-.72,0-1.41-.43-1.7-1.14-6.07-14.73-12.29-25.94-17.99-32.42-15.07-17.17-27.49-12.91-28.01-12.72-.95.35-2-.14-2.35-1.09-.35-.95.14-2,1.08-2.35.62-.23,15.28-5.34,32.03,13.74,5.96,6.78,12.4,18.35,18.63,33.45.39.94-.06,2.01-1,2.39-.23.09-.47.14-.7.14Z"/>
    <path class="cls-1" d="M477.49,266.18c-3.05,0-5.79-1.2-7.86-3.48-3.05-3.37-4.3-8.82-3.02-13.26.01-.04.02-.08.04-.12.57-1.92,1.59-3.51,2.96-4.59h0c.43-.35.87-.63,1.34-.86,4.19-2.09,7.63-.16,9.18,2.67,2.02,3.68,1.4,9.32-3.12,12.02-1.57.94-3.28.89-4.58-.13-1.46-1.14-2.06-3.3-1.46-5.25.74-2.4,3.05-3.96,6.19-4.18.02,0,.04,0,.06,0-.09-.25-.19-.49-.31-.7-.65-1.19-1.93-2.35-4.33-1.15-.24.12-.44.25-.62.39-.02.02-.05.04-.07.06-.79.63-1.39,1.61-1.75,2.83,0,.03-.02.07-.03.1-.89,3.22.05,7.28,2.24,9.7,1.74,1.91,4.01,2.63,6.75,2.12,4.21-.78,9.92-5.93,13.28-11.98,2.67-4.81,3.31-9.11,1.77-11.81-1.34-2.35-4.41-3.61-9.1-3.73-1-.03-1.8-.85-1.79-1.86.01-1,.83-1.81,1.83-1.81h0c6.11.16,10.21,2.04,12.24,5.58,2.22,3.89,1.6,9.36-1.75,15.41-3.96,7.15-10.47,12.83-15.82,13.81-.77.14-1.54.21-2.28.21ZM477.28,252.68c-1.51.13-2.53.7-2.8,1.59-.18.58.01,1.12.21,1.28.1.07.4-.11.44-.13,1.14-.68,1.82-1.67,2.16-2.74Z"/>
    <path class="cls-1" d="M509.26,304.54c-.26,0-.53-.06-.78-.17-8.67-4.06-24.55-12.27-33.51-21.68-10.03-10.54-12.83-21.78-8.31-33.39.01-.03.06-.14.07-.17.61-1.56,1.52-3.01,2.7-4.22,3.56-3.71,9.48-5.05,15.44-3.5,5.59,1.46,9.77,5.06,10.89,9.4.25.98-.33,1.98-1.31,2.24-.99.26-1.98-.33-2.24-1.31-.78-3.01-4.03-5.67-8.27-6.77-3.67-.96-8.71-.8-11.87,2.49-.84.87-1.49,1.91-1.96,3.09,0,.01-.04.11-.05.12-3.94,10.14-1.4,20.08,7.57,29.5,8.54,8.98,23.97,16.94,32.41,20.89.92.43,1.31,1.52.88,2.44-.31.67-.97,1.06-1.66,1.06Z"/>
    <path class="cls-1" d="M489.65,278.03c-7.85,0-13.47-1.67-17.36-5.09-4.27-3.76-6.35-9.63-6.35-17.95,0-1.01.82-1.83,1.83-1.83s1.83.82,1.83,1.83c0,7.2,1.67,12.17,5.11,15.19,4.42,3.89,12.33,5.04,24.17,3.52,15.36-1.98,27.57-8.41,27.69-8.48.9-.47,2-.14,2.48.76.48.89.14,2-.75,2.48-.52.28-12.9,6.81-28.95,8.88-3.56.46-6.78.69-9.7.69Z"/>
    <path class="cls-1" d="M469.11,249.98c-.41,0-.82-.14-1.16-.41-.78-.64-.9-1.8-.26-2.58,11.5-14.09,26.56-10.72,26.71-10.69.99.23,1.6,1.22,1.36,2.21-.23.99-1.23,1.6-2.21,1.36-.13-.03-13.12-2.7-23.03,9.44-.36.44-.89.67-1.42.67Z"/>
    <path class="cls-1" d="M446.72,296.21c-.26,0-.52-.05-.77-.17-.92-.43-1.32-1.51-.9-2.43.27-.6,7.01-14.59,32.36-12.94,10.27.66,22.31,3.84,35.79,9.45.93.39,1.38,1.46.99,2.4-.39.93-1.46,1.38-2.4.99-13.1-5.45-24.75-8.54-34.61-9.17-22.79-1.49-28.56,10.31-28.8,10.81-.31.67-.98,1.06-1.67,1.06Z"/>
    <path class="cls-1" d="M457.35,326.33c-.19,0-.37,0-.56-.01-4.54-.22-9.28-3.2-11.51-7.24-.02-.04-.04-.08-.06-.11-.94-1.74-1.34-3.56-1.16-5.27,0-.01,0-.03,0-.04.05-.52.16-1.06.34-1.58,1.48-4.44,5.28-5.51,8.38-4.6,4.03,1.18,7.58,5.6,6.3,10.71-.44,1.77-1.69,2.95-3.33,3.15-1.82.22-3.79-.88-4.74-2.68-1.18-2.22-.64-4.96,1.42-7.33.01-.02.03-.03.04-.04-.24-.12-.48-.21-.71-.28-1.3-.38-3.02-.3-3.87,2.24-.08.25-.14.49-.16.73,0,.03,0,.06,0,.08-.11,1,.15,2.12.77,3.24.02.03.03.06.05.1,1.65,2.9,5.18,5.11,8.44,5.27,2.61.13,4.69-.98,6.28-3.28,2.43-3.53,2.82-11.2.91-17.86-1.52-5.29-4.1-8.79-7.1-9.6-2.61-.71-5.66.56-9.07,3.78-.69.67-1.8.69-2.52.03-.74-.69-.79-1.84-.11-2.59h0s.06-.06.08-.09c4.4-4.17,8.63-5.75,12.57-4.67,4.32,1.18,7.75,5.49,9.66,12.13,2.25,7.86,1.67,16.47-1.42,20.95-2.17,3.16-5.33,4.87-8.92,4.87ZM455.11,313.82c-.98,1.16-1.29,2.29-.86,3.1.28.53.81.78,1.06.75.12-.01.21-.36.22-.4.32-1.29.1-2.47-.41-3.46Z"/>
    <path class="cls-1" d="M475.61,336.67c-.31,0-.62,0-.92-.01-14.55-.36-24.47-6.33-29.49-17.73,0-.01-.05-.11-.05-.13-.69-1.58-1.06-3.25-1.09-4.93-.11-5.14,3.13-10.27,8.44-13.39,4.98-2.92,10.48-3.33,14.35-1.06.87.51,1.17,1.64.65,2.51s-1.63,1.17-2.51.65c-2.68-1.57-6.86-1.16-10.64,1.06-3.27,1.92-6.73,5.59-6.63,10.15.02,1.2.29,2.4.8,3.57.01.03.06.14.07.17,4.36,9.91,13.19,15.14,26.19,15.46,8.44.21,21.82-2.93,38.77-9.07.95-.34,2,.15,2.35,1.1.34.95-.15,2-1.1,2.35-17.03,6.17-30.21,9.3-39.19,9.3Z"/>
    <path class="cls-1" d="M464.89,331.71c-5.34,0-10.63-2.7-16.17-8.23-.72-.72-.72-1.88,0-2.59.72-.72,1.88-.72,2.59,0,5.09,5.09,9.77,7.42,14.35,7.13,5.88-.38,12.29-5.15,19.58-14.6,9.48-12.28,13.55-25.44,13.59-25.58.29-.97,1.32-1.52,2.29-1.22.97.29,1.52,1.32,1.22,2.29-.17.56-4.31,13.94-14.19,26.75-8.08,10.47-15.15,15.56-22.25,16.02-.34.02-.68.03-1.02.03Z"/>
    <path class="cls-1" d="M446.12,318.23c-.93,0-1.73-.7-1.82-1.65-1.83-18.1,11.2-26.37,11.33-26.45.86-.53,1.99-.26,2.52.6.53.86.26,1.99-.6,2.52-.11.07-11.19,7.37-9.61,22.96.1,1.01-.63,1.91-1.64,2.01-.06,0-.12,0-.19,0Z"/>
    <path class="cls-1" d="M462.98,366.75c-.74,0-1.44-.46-1.72-1.19-.23-.62-5.36-15.27,13.74-32.03,6.98-6.14,18.59-12.65,33.57-18.82.94-.39,2.01.06,2.4,1,.39.94-.06,2.01-1,2.4-14.4,5.93-25.96,12.39-32.54,18.19-17.17,15.07-12.91,27.48-12.72,28.01.35.95-.14,2-1.09,2.35-.21.08-.42.11-.63.11Z"/>
    <path class="cls-1" d="M483.08,383.9c-1.25,0-2.49-.16-3.66-.5-.04-.01-.08-.02-.12-.04-1.89-.56-3.46-1.57-4.55-2.91,0-.01-.02-.02-.03-.03-.34-.41-.62-.85-.88-1.36-2.09-4.19-.17-7.63,2.67-9.18,3.68-2.02,9.32-1.4,12.02,3.12.94,1.57.89,3.28-.13,4.58-1.14,1.46-3.3,2.05-5.25,1.46-2.4-.74-3.96-3.05-4.18-6.19v-.06c-.25.09-.49.19-.7.31-1.19.65-2.35,1.93-1.15,4.33.12.24.25.44.39.62.02.02.04.05.06.07.63.79,1.61,1.39,2.83,1.75.04.01.07.02.11.03,3.22.89,7.28-.05,9.69-2.24,1.91-1.74,2.63-4.01,2.12-6.75-.78-4.21-5.93-9.92-11.99-13.28-4.81-2.67-9.11-3.31-11.81-1.77-2.35,1.35-3.61,4.41-3.73,9.1-.03,1-.84,1.79-1.83,1.79,0,0-.02,0-.02,0-1-.01-1.81-.83-1.81-1.83h0c.16-6.12,2.04-10.22,5.58-12.25,3.89-2.22,9.36-1.6,15.41,1.75,7.15,3.96,12.83,10.47,13.81,15.82.73,3.96-.43,7.56-3.26,10.14-2.48,2.25-6.1,3.52-9.6,3.52ZM482.67,372.73c.13,1.51.7,2.53,1.59,2.8.58.18,1.12-.01,1.28-.21.07-.09-.11-.4-.13-.44-.68-1.14-1.67-1.82-2.74-2.15Z"/>
    <path class="cls-1" d="M489.93,385.45c-3.51,0-7.07-.7-10.66-2.09-.02,0-.13-.05-.15-.06-1.57-.61-3.02-1.53-4.23-2.7-3.71-3.56-5.05-9.48-3.5-15.44,1.46-5.59,5.06-9.76,9.4-10.89.99-.25,1.98.33,2.24,1.31.25.98-.33,1.98-1.31,2.24-3.01.78-5.67,4.03-6.77,8.27-.96,3.66-.8,8.71,2.49,11.87.87.84,1.9,1.49,3.09,1.96.01,0,.12.05.13.05,10.13,3.94,20.07,1.4,29.49-7.57,7.47-7.1,17.44-21.74,23.2-34.05.43-.92,1.52-1.31,2.44-.88.92.43,1.31,1.52.88,2.44-6.02,12.87-16.12,27.65-24,35.15-7.28,6.93-14.89,10.41-22.73,10.41Z"/>
    <path class="cls-1" d="M484.97,384.08c-1.01,0-1.83-.82-1.83-1.83s.82-1.83,1.83-1.83c7.2,0,12.17-1.67,15.19-5.11,3.89-4.43,5.04-12.33,3.52-24.17-1.98-15.39-8.41-27.57-8.48-27.69-.48-.89-.14-2,.75-2.48.89-.48,2-.14,2.48.75.28.52,6.81,12.9,8.88,28.95,1.69,13.12.29,21.72-4.41,27.06-3.76,4.27-9.63,6.35-17.95,6.35Z"/>
    <path class="cls-1" d="M478.13,382.74c-.41,0-.82-.14-1.16-.41-14.09-11.5-10.72-26.56-10.69-26.71.23-.99,1.23-1.6,2.21-1.36.99.23,1.6,1.22,1.36,2.21-.03.13-2.7,13.12,9.44,23.03.78.64.9,1.8.26,2.58-.36.44-.89.67-1.42.67Z"/>
    <path class="cls-1" d="M524.36,405.13c-.26,0-.52-.05-.76-.17-.6-.27-14.59-7.01-12.94-32.36.59-9.17,5.13-25.3,11.31-40.14.39-.93,1.46-1.38,2.4-.99.93.39,1.38,1.46.99,2.4-6.04,14.51-10.47,30.17-11.04,38.97-1.48,22.79,10.31,28.56,10.81,28.79.92.43,1.32,1.52.89,2.44-.31.67-.97,1.07-1.66,1.07Z"/>
    <path class="cls-1" d="M544.49,406c-.27,0-.54-.01-.81-.04-.01,0-.03,0-.04,0-.52-.05-1.05-.16-1.58-.34-4.44-1.48-5.51-5.28-4.6-8.38,1.18-4.03,5.6-7.58,10.71-6.3,1.77.44,2.95,1.69,3.15,3.34.22,1.84-.88,3.79-2.68,4.74-2.22,1.17-4.96.64-7.33-1.42-.02-.01-.03-.03-.04-.04-.12.24-.21.48-.28.71-.38,1.3-.3,3.02,2.25,3.87.25.08.49.14.73.16.03,0,.06,0,.09,0,1,.11,2.12-.15,3.24-.77.03-.02.06-.03.09-.05,2.9-1.65,5.12-5.18,5.28-8.44.12-2.58-.98-4.69-3.28-6.27-3.53-2.43-11.2-2.82-17.86-.91-5.29,1.52-8.79,4.1-9.6,7.1-.71,2.62.56,5.67,3.79,9.08l-2.67,2.51h0c-4.16-4.39-5.73-8.62-4.66-12.55,1.18-4.32,5.49-7.75,12.13-9.66,7.86-2.25,16.47-1.67,20.95,1.42,3.32,2.29,5.05,5.65,4.86,9.47-.22,4.54-3.2,9.28-7.24,11.51-.04.02-.07.04-.11.05-1.47.8-2.99,1.21-4.46,1.21ZM543.81,394.91c1.16.98,2.29,1.29,3.1.86.53-.28.78-.8.75-1.06-.01-.12-.36-.21-.4-.22-1.29-.32-2.47-.1-3.46.41Z"/>
    <path class="cls-1" d="M543.61,405.96c-5.06,0-10.08-3.22-13.14-8.45-2.92-4.98-3.33-10.48-1.06-14.35.51-.87,1.64-1.16,2.51-.65.87.51,1.17,1.64.65,2.51-1.57,2.68-1.16,6.85,1.06,10.64,1.92,3.27,5.59,6.74,10.15,6.63,1.2-.02,2.4-.29,3.57-.8.02,0,.13-.06.16-.07,9.92-4.37,15.15-13.19,15.47-26.2.24-9.67-2.19-21.61-7.21-35.49-.34-.95.15-2,1.1-2.35.95-.35,2,.15,2.35,1.1,5.19,14.31,7.69,26.7,7.43,36.83-.36,14.55-6.33,24.47-17.73,29.49-.02.01-.13.06-.16.07-1.54.68-3.21,1.05-4.9,1.08-.08,0-.16,0-.24,0Z"/>
    <path class="cls-1" d="M552.16,401.83c-.47,0-.94-.18-1.3-.54-.72-.72-.72-1.88,0-2.59,5.09-5.09,7.42-9.79,7.13-14.35-.38-5.88-5.15-12.29-14.6-19.58-12.28-9.48-25.44-13.55-25.58-13.59-.97-.29-1.52-1.32-1.22-2.29.29-.97,1.32-1.52,2.29-1.22.56.17,13.94,4.31,26.75,14.19,10.47,8.09,15.56,15.15,16.02,22.25.36,5.68-2.32,11.3-8.2,17.18-.36.36-.83.54-1.3.54Z"/>
    <path class="cls-1" d="M543.13,405.89c-15.71,0-22.93-11.38-23.01-11.51-.53-.86-.27-1.99.6-2.52.86-.53,1.99-.27,2.52.6.07.11,7.35,11.18,22.96,9.61,1-.11,1.91.63,2.01,1.64.1,1.01-.63,1.91-1.64,2.01-1.19.12-2.33.18-3.44.18Z"/>
    <path class="cls-1" d="M590.02,389.54c-5.87,0-15.76-2.28-26.52-14.53-7.38-8.4-13.3-18.33-18.63-31.26-.39-.94.06-2.01,1-2.4.94-.39,2.01.06,2.4,1,5.17,12.54,10.89,22.15,18,30.23,15.07,17.17,27.49,12.9,28.01,12.72.95-.35,2,.14,2.35,1.09.35.95-.14,2-1.08,2.35-.22.08-2.24.79-5.52.79Z"/>
    <path class="cls-1" d="M594.91,388.87h0c-6.11-.16-10.21-2.04-12.24-5.58-2.22-3.89-1.6-9.36,1.75-15.41,3.96-7.15,10.47-12.83,15.82-13.81,3.97-.73,7.56.43,10.14,3.26,3.05,3.37,4.3,8.82,3.02,13.26-.01.04-.02.08-.04.12-.57,1.92-1.59,3.51-2.96,4.59h0c-.43.35-.87.63-1.34.86-4.19,2.09-7.63.17-9.18-2.67-2.02-3.68-1.4-9.32,3.12-12.02,1.57-.94,3.28-.89,4.58.13,1.46,1.14,2.06,3.3,1.46,5.25-.74,2.4-3.05,3.96-6.19,4.18-.02,0-.04,0-.06,0,.09.25.19.49.31.7.65,1.19,1.93,2.35,4.33,1.15.24-.12.45-.25.63-.4.02-.02.04-.04.06-.05.79-.63,1.39-1.61,1.75-2.83,0-.03.02-.07.03-.1.89-3.22-.05-7.28-2.24-9.7-1.74-1.91-4-2.63-6.75-2.12-4.21.78-9.92,5.93-13.28,11.98-2.67,4.81-3.31,9.11-1.77,11.81,1.34,2.35,4.41,3.61,9.1,3.73,1,.03,1.8.85,1.79,1.86-.01,1-.83,1.81-1.83,1.81ZM605.25,364.47c-.13,0-.34.13-.37.15-1.14.68-1.82,1.67-2.16,2.74,1.51-.13,2.53-.7,2.8-1.59.18-.58-.01-1.12-.21-1.28-.02-.01-.04-.02-.06-.02Z"/>
    <path class="cls-1" d="M600,379.26c-1.59,0-3.22-.21-4.87-.64-5.59-1.46-9.76-5.06-10.89-9.4-.25-.98.33-1.98,1.31-2.24.99-.25,1.98.33,2.24,1.31.78,3.01,4.03,5.67,8.27,6.77,3.66.96,8.71.8,11.87-2.49.84-.87,1.49-1.91,1.96-3.09,0-.01.04-.11.05-.12,3.94-10.14,1.4-20.08-7.57-29.5-8.44-8.87-24.02-16.9-32.55-20.89-.92-.43-1.31-1.52-.88-2.44.43-.92,1.52-1.31,2.44-.88,8.77,4.1,24.8,12.38,33.66,21.69,10.03,10.54,12.83,21.78,8.31,33.39-.01.03-.06.14-.07.17-.61,1.56-1.53,3.01-2.7,4.22-2.58,2.69-6.4,4.13-10.57,4.13Z"/>
    <path class="cls-1" d="M612.23,366.87c-1.01,0-1.83-.82-1.83-1.83,0-7.2-1.67-12.17-5.11-15.19-4.43-3.89-12.33-5.04-24.17-3.52-15.39,1.98-27.57,8.41-27.69,8.48-.9.48-2.01.14-2.48-.75-.48-.89-.14-2,.75-2.48.52-.28,12.9-6.81,28.95-8.88,13.12-1.69,21.72-.29,27.06,4.41,4.27,3.76,6.35,9.63,6.35,17.95,0,1.01-.82,1.83-1.83,1.83Z"/>
    <path class="cls-1" d="M589.85,384.11c-2.58,0-4.21-.37-4.26-.38-.99-.23-1.6-1.22-1.36-2.21.23-.99,1.23-1.59,2.21-1.36.13.03,13.12,2.7,23.03-9.44.64-.78,1.8-.9,2.58-.26.78.64.9,1.8.26,2.58-7.75,9.5-17.13,11.07-22.46,11.07Z"/>
    <path class="cls-1" d="M606.64,339.49c-1.3,0-2.65-.04-4.06-.14-10.22-.66-23.36-4.14-36.99-9.81-.93-.39-1.38-1.46-.99-2.4.39-.93,1.46-1.38,2.4-.99,13.26,5.52,25.98,8.91,35.81,9.54,22.79,1.49,28.56-10.31,28.8-10.81.43-.92,1.52-1.32,2.44-.89s1.32,1.51.9,2.43c-.26.56-6.29,13.07-28.3,13.07Z"/>
    <path class="cls-1" d="M624.41,331.98c-.82,0-1.64-.11-2.44-.33-4.32-1.18-7.75-5.49-9.66-12.13-2.25-7.86-1.67-16.47,1.42-20.95,2.29-3.32,5.66-5.05,9.48-4.86,4.54.22,9.28,3.2,11.51,7.24.02.04.04.08.06.11.94,1.74,1.34,3.56,1.16,5.27,0,.01,0,.03,0,.04-.05.52-.16,1.05-.34,1.58-1.48,4.44-5.27,5.51-8.38,4.6-4.03-1.18-7.58-5.6-6.3-10.71.44-1.77,1.69-2.95,3.33-3.15,1.83-.22,3.79.88,4.74,2.68,1.18,2.22.64,4.96-1.42,7.33-.01.02-.03.03-.04.04.24.12.48.21.71.28,1.3.38,3.02.3,3.87-2.24.08-.25.14-.49.16-.73,0-.03,0-.06,0-.08.11-1-.15-2.12-.77-3.24-.02-.03-.03-.06-.05-.1-1.65-2.9-5.18-5.11-8.44-5.27-2.59-.13-4.69.98-6.28,3.28-2.43,3.53-2.82,11.2-.91,17.86,1.52,5.29,4.1,8.79,7.1,9.6,2.62.71,5.66-.56,9.07-3.78.69-.67,1.8-.69,2.52-.03.74.69.79,1.84.11,2.59h0s-.06.06-.08.09c-3.51,3.33-6.9,5-10.13,5ZM624.74,302.35s-.03,0-.04,0c-.12.01-.21.36-.22.4-.32,1.29-.1,2.47.41,3.46.98-1.16,1.29-2.29.86-3.1-.27-.5-.75-.76-1.01-.76Z"/>
    <path class="cls-1" d="M618.87,322.06c-2.09,0-4.06-.48-5.72-1.46-.87-.51-1.17-1.64-.65-2.51.51-.87,1.64-1.17,2.51-.65,2.68,1.57,6.85,1.16,10.64-1.06,3.27-1.92,6.72-5.59,6.63-10.15-.02-1.2-.29-2.4-.8-3.57-.01-.03-.06-.14-.07-.17-4.36-9.91-13.19-15.14-26.19-15.46-10.76-.27-27.11,4.78-38.93,9.07-.95.34-2-.15-2.35-1.1-.34-.95.15-2,1.1-2.35,12.12-4.39,28.98-9.58,40.28-9.29,14.55.36,24.47,6.33,29.49,17.73,0,.01.05.11.05.12.69,1.58,1.06,3.25,1.09,4.93.11,5.14-3.13,10.27-8.44,13.39-2.84,1.67-5.85,2.51-8.63,2.51Z"/>
    <path class="cls-1" d="M579.41,333.49c-.18,0-.36-.03-.54-.08-.97-.29-1.52-1.32-1.22-2.29.17-.56,4.31-13.94,14.19-26.75,8.08-10.47,15.15-15.56,22.25-16.02,5.67-.37,11.3,2.32,17.18,8.2.72.72.72,1.88,0,2.59-.72.72-1.88.72-2.59,0-5.09-5.09-9.8-7.44-14.35-7.13-5.88.38-12.29,5.15-19.58,14.6-9.46,12.26-13.55,25.44-13.59,25.58-.24.79-.97,1.3-1.75,1.3Z"/>
    <path class="cls-1" d="M623.41,330.17c-.62,0-1.22-.31-1.56-.87-.53-.86-.26-1.99.6-2.52.11-.07,11.19-7.37,9.61-22.96-.1-1.01.63-1.91,1.64-2.01,1.01-.11,1.91.63,2.01,1.64,1.83,18.1-11.2,26.37-11.33,26.45-.3.19-.63.27-.96.27Z"/>
    <path class="cls-1" d="M570.36,306.54c-.72,0-1.41-.43-1.7-1.14-.39-.94.06-2.01,1-2.4,13-5.36,25.31-12.56,32.92-19.25,17.17-15.07,12.91-27.48,12.72-28.01-.35-.95.14-2,1.09-2.35.94-.35,2,.13,2.35,1.08.23.62,5.36,15.27-13.74,32.03-7.9,6.95-20.59,14.39-33.95,19.89-.23.09-.47.14-.7.14Z"/>
    <path class="cls-1" d="M608,268.66c-3.02,0-6.47-1.03-10.13-3.06-7.15-3.96-12.83-10.47-13.81-15.82-.73-3.96.43-7.56,3.26-10.14,3.37-3.06,8.82-4.3,13.26-3.02.04.01.08.02.12.04,1.89.56,3.46,1.57,4.55,2.91,0,.01.02.02.03.03.34.41.62.85.88,1.35,2.09,4.19.17,7.63-2.67,9.18-3.68,2.01-9.32,1.4-12.02-3.12-.94-1.57-.89-3.28.13-4.58,1.14-1.46,3.3-2.05,5.25-1.46,2.4.74,3.96,3.05,4.18,6.19,0,.02,0,.04,0,.06.25-.09.49-.19.7-.31,1.19-.65,2.35-1.93,1.15-4.33-.12-.24-.25-.44-.39-.62-.02-.02-.04-.05-.06-.07-.63-.79-1.61-1.39-2.83-1.75-.04-.01-.07-.02-.1-.03-3.22-.88-7.28.05-9.69,2.24-1.91,1.74-2.63,4.01-2.12,6.75.78,4.21,5.93,9.92,11.99,13.28,4.81,2.67,9.11,3.31,11.81,1.77,2.35-1.35,3.61-4.41,3.73-9.1.03-1,.84-1.79,1.83-1.79,0,0,.02,0,.02,0,1,.01,1.81.83,1.81,1.83h0c-.16,6.12-2.04,10.22-5.58,12.25-1.53.88-3.31,1.31-5.27,1.31ZM595.28,244.42c-.38,0-.7.14-.81.28-.07.09.11.4.13.44.68,1.14,1.67,1.82,2.74,2.15-.13-1.51-.7-2.53-1.59-2.8-.16-.05-.32-.07-.47-.07ZM603.84,240.76h.01-.01Z"/>
    <path class="cls-1" d="M546.57,281.77c-.26,0-.53-.06-.78-.17-.92-.43-1.31-1.52-.88-2.44,5.23-11.18,13.87-26.03,22.42-34.16,10.54-10.04,21.78-12.83,33.4-8.31.02,0,.13.05.15.06,1.57.61,3.02,1.53,4.23,2.7,3.71,3.56,5.05,9.48,3.5,15.44-1.46,5.59-5.06,9.76-9.4,10.89-.99.26-1.98-.33-2.24-1.31-.25-.98.33-1.98,1.31-2.24,3.01-.78,5.67-4.03,6.77-8.27.96-3.66.8-8.71-2.49-11.87-.87-.84-1.91-1.49-3.09-1.96-.02,0-.13-.05-.15-.06-10.11-3.93-20.05-1.39-29.47,7.58-6.84,6.51-15.13,19.18-21.63,33.06-.31.67-.97,1.06-1.66,1.06Z"/>
    <path class="cls-1" d="M583.17,299.29c-.66,0-1.29-.35-1.62-.97-.28-.52-6.81-12.9-8.88-28.95-1.69-13.12-.29-21.72,4.41-27.06,3.76-4.27,9.63-6.35,17.95-6.35,1.01,0,1.83.82,1.83,1.83s-.82,1.83-1.83,1.83c-7.2,0-12.17,1.67-15.19,5.11-3.89,4.43-5.04,12.33-3.52,24.17,1.98,15.39,8.41,27.57,8.48,27.69.48.89.14,2-.75,2.48-.27.15-.57.22-.86.22Z"/>
    <path class="cls-1" d="M611.93,265.83c-.14,0-.28-.02-.42-.05-.99-.23-1.6-1.22-1.36-2.21.03-.13,2.7-13.12-9.44-23.03-.78-.64-.9-1.8-.26-2.58.64-.79,1.8-.9,2.58-.26,14.09,11.5,10.72,26.56,10.69,26.71-.2.84-.95,1.41-1.78,1.41Z"/>
  </g>
</svg>